# xmcd
#
# Track frame offsets:
#	150
#	21521
#	37537
#	59521
#	72403
#	92940
#	106955
#	126175
#	138131
#	156402
#
# Disc length: 2243 seconds
# Revision: 0
# Processed by: cddbd v1.5.2PL0 Copyright (c) Steve Scherf et al.
# Submitted via: dBpowerAMP V12.0
#
DISCID=8808c10a
DTITLE=Reid - Reid
DYEAR=2012
DGENRE=Country
TTITLE0=The River
TTITLE1=For You
TTITLE2=Lover
TTITLE3=West Coast Waters
TTITLE4=The One I Want
TTITLE5=Hollow
TTITLE6=Not Alone
TTITLE7=Who Are You
TTITLE8=Honestly
TTITLE9=A Friend Of Yours
EXTD=
EXTT0=
EXTT1=
EXTT2=
EXTT3=
EXTT4=
EXTT5=
EXTT6=
EXTT7=
EXTT8=
EXTT9=
PLAYORDER=
